<svg width="85" height="111" viewBox="0 0 85 111" fill="none" xmlns="http://www.w3.org/2000/svg">
<g id="Square academic cap">
<g id="Group 1058">
<path id="Subtract" fill-rule="evenodd" clip-rule="evenodd" d="M24.5974 57.8023L40.1404 65.4235C41.3509 66.017 42.6856 66.0137 43.8943 65.4141L59.0763 57.8833L59.0762 72.3648C59.0763 72.3784 59.0764 72.3921 59.0764 72.4058C59.0764 76.8673 51.358 80.4841 41.8369 80.4841C32.3158 80.4841 24.5974 76.8673 24.5974 72.4058C24.5974 72.4012 24.5974 72.3967 24.5974 72.3921C24.5974 72.383 24.5973 72.3739 24.5974 72.3648V57.8023Z" fill="url(#paint0_linear_1_17)"/>
<g id="Group 1055">
<path id="Vector 746" d="M73.0898 68.6859C73.6084 67.4423 74.1952 65.827 74.6916 64.3909C75.0781 63.2727 76.1783 63.0264 76.6517 64.0861C77.4807 65.9417 78.0271 68.1557 78.2991 69.6309C78.3855 70.0995 78.3094 70.6077 78.0336 70.9279C76.8637 72.2862 75.0579 71.9223 73.6552 71.2277C72.9029 70.8552 72.705 69.6086 73.0898 68.6859Z" fill="white"/>
<path id="Vector 746 (Stroke)" fill-rule="evenodd" clip-rule="evenodd" d="M75.7298 64.2808C75.5818 64.3075 75.3997 64.4503 75.2969 64.7477C74.7983 66.1902 74.2034 67.8286 73.673 69.1006C73.5608 69.3697 73.5364 69.685 73.5883 69.9425C73.6378 70.1883 73.7452 70.3448 73.8906 70.4168C74.5471 70.7419 75.2684 70.9735 75.937 70.9804C76.6012 70.9873 77.1664 70.7744 77.5924 70.2798C77.64 70.2246 77.6982 70.0762 77.6535 69.8339C77.3901 68.4053 76.8629 66.2797 76.0781 64.523C75.983 64.3102 75.858 64.2577 75.7298 64.2808ZM75.5484 62.5627C76.1852 62.448 76.847 62.8023 77.2253 63.6491L76.6517 64.0861M75.5484 62.5627C74.9313 62.6739 74.3701 63.2133 74.0864 64.0341L75.5484 62.5627ZM77.2253 63.6491C78.0985 65.6036 78.6641 67.906 78.9447 69.4279C79.0729 70.1229 78.9789 70.9907 78.4748 71.576C77.7309 72.4397 76.8083 72.7239 75.9264 72.7148C75.049 72.7057 74.166 72.408 73.4197 72.0385C72.1735 71.4214 71.9947 69.4986 72.5066 68.2711C73.0134 67.056 73.5922 65.4637 74.0864 64.0341" fill="url(#paint1_linear_1_17)"/>
<path id="Vector 788 (Stroke)" fill-rule="evenodd" clip-rule="evenodd" d="M74.5422 62.0985C74.8261 61.7952 75.2444 61.8498 75.4767 62.2205C75.7044 62.584 75.8214 63.1182 75.8948 63.5627C75.9757 64.053 76.0313 64.6262 76.0698 65.2025C76.1468 66.358 76.16 67.6085 76.1488 68.4111C76.1422 68.89 75.8395 69.2711 75.4728 69.2624C75.1061 69.2537 74.8143 68.8584 74.8209 68.3796C74.8315 67.6195 74.8186 66.4322 74.7466 65.353C74.7106 64.812 74.6609 64.3187 74.5965 63.928C74.5643 63.7328 74.5308 63.5784 74.4983 63.464C74.4677 63.3561 74.4471 63.3169 74.4474 63.3167C74.4474 63.3166 74.4479 63.3174 74.4488 63.3188C74.2165 62.9481 74.2584 62.4018 74.5422 62.0985Z" fill="url(#paint2_linear_1_17)"/>
<path id="Vector 695 (Stroke)" fill-rule="evenodd" clip-rule="evenodd" d="M75.3543 45.3589C75.9045 45.3589 76.3504 45.9413 76.3504 46.6597V61.0648C76.3504 61.7832 75.9045 62.3656 75.3543 62.3656C74.8042 62.3656 74.3583 61.7832 74.3583 61.0648V46.6597C74.3583 45.9413 74.8042 45.3589 75.3543 45.3589Z" fill="url(#paint3_linear_1_17)"/>
<path id="Ellipse 615" d="M78.0958 61.5763C78.0958 63.5534 76.8684 65.1563 75.3543 65.1563C73.8403 65.1563 72.6129 63.5534 72.6129 61.5763C72.6129 59.5991 73.8403 57.9963 75.3543 57.9963C76.8684 57.9963 78.0958 59.5991 78.0958 61.5763Z" fill="url(#paint4_linear_1_17)"/>
</g>
<path id="Vector 694" d="M39.9465 28.7036L7.75953 45.4522C7.16466 45.7617 7.17311 46.8651 7.7726 47.1591L40.0516 62.9865C41.3291 63.6128 42.7376 63.6093 44.0131 62.9766L75.9037 47.1579C76.4998 46.8622 76.5083 45.7649 75.9168 45.4535L44.1178 28.7145C42.7802 28.0104 41.2863 28.0065 39.9465 28.7036Z" fill="url(#paint5_linear_1_17)"/>
<path id="Vector 790 (Stroke)" fill-rule="evenodd" clip-rule="evenodd" d="M66.4167 48.1524C66.5425 48.6023 66.3651 49.1001 66.0206 49.2643L43.3059 60.0895C42.9614 60.2537 42.5801 60.022 42.4544 59.5721C42.3287 59.1222 42.506 58.6244 42.8506 58.4602L65.5653 47.635C65.9098 47.4708 66.291 47.7024 66.4167 48.1524Z" fill="white"/>
<path id="Vector 791 (Stroke)" fill-rule="evenodd" clip-rule="evenodd" d="M12.9937 46.1448C13.12 45.6952 13.5015 45.4644 13.8458 45.6293L21.4372 49.2659C21.7815 49.4308 21.9582 49.929 21.8319 50.3787C21.7056 50.8283 21.3241 51.0591 20.9798 50.8942L13.3884 47.2576C13.0441 47.0927 12.8674 46.5945 12.9937 46.1448Z" fill="white"/>
</g>
</g>
<defs>
<linearGradient id="paint0_linear_1_17" x1="41.8369" y1="57.8023" x2="41.8369" y2="80.4841" gradientUnits="userSpaceOnUse">
<stop offset="0.269231" stop-color="#6755A7"/>
<stop offset="0.923077" stop-color="#282141"/>
</linearGradient>
<linearGradient id="paint1_linear_1_17" x1="75.6176" y1="62.5417" x2="75.6176" y2="72.715" gradientUnits="userSpaceOnUse">
<stop offset="0.269231" stop-color="#6755A7"/>
<stop offset="0.923077" stop-color="#282141"/>
</linearGradient>
<linearGradient id="paint2_linear_1_17" x1="75.2255" y1="61.9024" x2="75.2255" y2="69.2625" gradientUnits="userSpaceOnUse">
<stop offset="0.269231" stop-color="#6755A7"/>
<stop offset="0.923077" stop-color="#282141"/>
</linearGradient>
<linearGradient id="paint3_linear_1_17" x1="75.3543" y1="45.3589" x2="75.3543" y2="62.3656" gradientUnits="userSpaceOnUse">
<stop offset="0.269231" stop-color="#6755A7"/>
<stop offset="0.923077" stop-color="#282141"/>
</linearGradient>
<linearGradient id="paint4_linear_1_17" x1="75.3543" y1="57.9963" x2="75.3543" y2="65.1563" gradientUnits="userSpaceOnUse">
<stop offset="0.269231" stop-color="#6755A7"/>
<stop offset="0.923077" stop-color="#282141"/>
</linearGradient>
<linearGradient id="paint5_linear_1_17" x1="41.8369" y1="28.1836" x2="41.8369" y2="63.4537" gradientUnits="userSpaceOnUse">
<stop offset="0.269231" stop-color="#6755A7"/>
<stop offset="0.923077" stop-color="#282141"/>
</linearGradient>
</defs>
</svg>
